<?xml version="1.0" encoding="UTF-8" standalone="no"?>
<svg
   xmlns:dc="http://purl.org/dc/elements/1.1/"
   xmlns:cc="http://creativecommons.org/ns#"
   xmlns:rdf="http://www.w3.org/1999/02/22-rdf-syntax-ns#"
   xmlns:svg="http://www.w3.org/2000/svg"
   xmlns="http://www.w3.org/2000/svg"
   width="33cm"
   height="33cm"
   viewBox="0 0 330 329.99999"
   version="1.1"
   id="roomba-icon">
  <defs
     id="defs2" />
  <metadata
     id="metadata5">
    <rdf:RDF>
      <cc:Work
         rdf:about="">
        <dc:format>image/svg+xml</dc:format>
        <dc:type
           rdf:resource="http://purl.org/dc/dcmitype/StillImage" />
        <dc:title></dc:title>
      </cc:Work>
    </rdf:RDF>
  </metadata>
  <g
     id="layer1"
     transform="translate(0,32.999985)">
    <circle
       style="fill:#056ebe;fill-opacity:1;stroke:#000000;stroke-width:15.28257561;stroke-linecap:round;stroke-linejoin:round;stroke-miterlimit:4;stroke-dasharray:none;stroke-opacity:1"
       id="outer-circle"
       cy="132.00002"
       cx="165"
       r="157.35872" />
    <path
       style="fill:#056ebe;fill-opacity:1;stroke:#000000;stroke-width:2.05785918;stroke-linecap:round;stroke-linejoin:round;stroke-miterlimit:4;stroke-dasharray:none;stroke-opacity:1"
       id="path5203"
       d="m 239.99988,131.99986 a 75,75 0 0 1 -37.5,64.95191 75,75 0 0 1 -75,0 75,75 0 0 1 -37.500002,-64.95191" />
    <path
       style="fill:none;stroke:#000000;stroke-width:2;stroke-linecap:butt;stroke-linejoin:miter;stroke-opacity:1;stroke-miterlimit:4;stroke-dasharray:none"
       d="M 90,-2.9999728 V 132.00003"
       id="path5205" />
    <path
       style="fill:none;stroke:#000000;stroke-width:2;stroke-linecap:butt;stroke-linejoin:miter;stroke-miterlimit:4;stroke-dasharray:none;stroke-opacity:1"
       d="M 240,-2.9999728 V 132.00003"
       id="path5207" />
    <path
       id="path818"
       d="m 89.999995,28.586357 c 0.02658,5.171565 5.147502,10.026589 10,10 5.211375,-0.02856 129.999995,0 129.999995,0 5.94411,0.05717 10.03988,-4.376422 10,-10"
       style="fill:none;stroke:#000000;stroke-width:1.99999988;stroke-linecap:butt;stroke-linejoin:miter;stroke-miterlimit:4;stroke-dasharray:none;stroke-opacity:1" />
    <path
       id="path818-0"
       d="m 89.999995,20.000012 c -0.0266,3.040112 2.080261,5.071991 5,5 H 234.99999 c 3.31207,0 4.99799,-1.636488 4.998,-5"
       style="fill:none;stroke:#000000;stroke-width:2;stroke-linecap:butt;stroke-linejoin:miter;stroke-miterlimit:4;stroke-dasharray:none;stroke-opacity:1" />
    <circle
       r="19.999998"
       cy="131"
       cx="165.99998"
       id="path835"
       style="fill:#056ebe;fill-opacity:1;stroke:#000000;stroke-width:2.99999984;stroke-linecap:round;stroke-linejoin:round;stroke-miterlimit:4;stroke-dasharray:none;stroke-opacity:1" />
  </g>
</svg>
